<svg width="106" height="106" viewBox="0 0 106 106" fill="none" xmlns="http://www.w3.org/2000/svg">
<g clip-path="url(#clip0_246_9920)">
<mask id="mask0_246_9920" style="mask-type:luminance" maskUnits="userSpaceOnUse" x="0" y="0" width="106" height="106">
<path d="M0 0H106V106H0V0Z" fill="white"/>
</mask>
<g mask="url(#mask0_246_9920)">
<path fill-rule="evenodd" clip-rule="evenodd" d="M-0.0585938 0.374023H106.4V105.978H-0.0585938V0.374023Z" fill="black"/>
<path fill-rule="evenodd" clip-rule="evenodd" d="M-0.0585938 0.374023H106.4V105.978H-0.0585938V0.374023Z" stroke="black" stroke-width="0.0523026" stroke-miterlimit="10" stroke-linejoin="round"/>
<path fill-rule="evenodd" clip-rule="evenodd" d="M9.22852 23.8301H97.2369V80.8113H9.22852V23.8301Z" fill="black"/>
<path fill-rule="evenodd" clip-rule="evenodd" d="M9.22852 23.8301H97.2369V80.8113H9.22852V23.8301Z" stroke="black" stroke-width="1.25526" stroke-miterlimit="10" stroke-linejoin="round"/>
<path d="M19.8022 67.6865C19.2507 67.6865 18.7574 67.4833 18.3224 67.077C17.8873 66.6707 17.6698 66.1338 17.6698 65.4663V44.0063C17.6698 41.9166 18.0833 40.1028 18.9103 38.5647C19.7374 37.0266 20.8907 35.8297 22.3702 34.9739C23.8504 34.1176 25.5627 33.6895 27.5071 33.6895C28.1459 33.6895 28.6756 33.878 29.0963 34.2551C29.517 34.6322 29.7273 35.1111 29.7273 35.6919C29.7273 36.2429 29.517 36.7144 29.0963 37.1063C28.6756 37.4983 28.1459 37.6943 27.5071 37.6943C26.4333 37.6943 25.4901 37.9411 24.6774 38.4347C23.8653 38.9277 23.2343 39.6095 22.7843 40.4801C22.3344 41.3508 22.1094 42.3809 22.1094 43.5707V65.4663C22.1094 66.1338 21.9062 66.6707 21.4999 67.077C21.0936 67.4833 20.5277 67.6865 19.8022 67.6865ZM15.7974 48.4898C15.1879 48.4898 14.6946 48.3156 14.3176 47.9672C13.9405 47.6188 13.752 47.1835 13.752 46.6613C13.752 46.081 13.9405 45.6167 14.3176 45.2683C14.6946 44.92 15.1879 44.7458 15.7974 44.7458H26.5498C27.1593 44.7458 27.6526 44.92 28.0297 45.2683C28.4067 45.6167 28.5953 46.081 28.5953 46.6613C28.5953 47.1835 28.4067 47.6188 28.0297 47.9672C27.6526 48.3156 27.1593 48.4898 26.5498 48.4898H15.7974ZM37.8242 77.8725C37.3599 77.8725 36.9607 77.7637 36.6267 77.5462C36.2933 77.3287 35.996 76.9441 35.7348 76.3926C34.1095 72.9393 32.8833 69.5004 32.0563 66.0758C31.2293 62.6512 30.8158 59.2123 30.8158 55.759C30.8158 52.3057 31.2218 48.8671 32.0339 45.4431C32.8466 42.0185 34.0802 38.6229 35.7348 35.2563C36.1699 34.2405 36.8663 33.7326 37.8242 33.7326C38.4624 33.7326 38.9918 33.9575 39.4125 34.4075C39.8338 34.8574 40.0444 35.4015 40.0444 36.0397C40.0151 36.504 39.9135 36.8814 39.7396 37.1718C36.6921 43.3529 35.1684 49.5633 35.1684 55.8029C35.1684 58.8791 35.5673 61.999 36.365 65.1624C37.1633 68.3253 38.3026 71.4448 39.7827 74.521C39.9572 74.8688 40.0444 75.2316 40.0444 75.6092C40.0444 76.2474 39.8412 76.784 39.4349 77.2191C39.0286 77.6547 38.4917 77.8725 37.8242 77.8725ZM73.1274 66.9901L64.0296 57.8923C63.5653 57.428 63.3331 56.9129 63.3331 56.347C63.3331 55.7811 63.5653 55.266 64.0296 54.8017C64.4939 54.3374 65.009 54.1053 65.5749 54.1053C66.1407 54.1053 66.6558 54.3374 67.1201 54.8017L76.2179 63.9426C76.653 64.4069 76.8777 64.9148 76.892 65.4663C76.9069 66.0178 76.6822 66.5258 76.2179 66.9901C75.7536 67.4544 75.2385 67.6865 74.6726 67.6865C74.1068 67.6865 73.5917 67.4544 73.1274 66.9901ZM61.2429 68.1221C58.6895 68.1221 56.3534 67.694 54.2345 66.8377C52.1162 65.9814 50.2951 64.777 48.7714 63.2246C47.2482 61.6721 46.0656 59.8295 45.2237 57.6968C44.3823 55.5636 43.9616 53.22 43.9616 50.6661C43.9616 48.1121 44.3823 45.776 45.2237 43.6576C46.0656 41.5393 47.2482 39.7039 48.7714 38.1514C50.2951 36.5984 52.1162 35.3941 54.2345 34.5383C56.3534 33.682 58.6895 33.2539 61.2429 33.2539C63.7969 33.2539 66.1258 33.682 68.2298 34.5383C70.3338 35.3941 72.1549 36.5984 73.693 38.1514C75.2311 39.7039 76.4208 41.5393 77.2622 43.6576C78.1041 45.776 78.5251 48.1121 78.5251 50.6661C78.5251 53.22 78.1041 55.5636 77.2622 57.6968C76.4208 59.8295 75.2311 61.6721 73.693 63.2246C72.1549 64.777 70.3338 65.9814 68.2298 66.8377C66.1258 67.694 63.7969 68.1221 61.2429 68.1221ZM61.2429 64.0303C63.1294 64.0303 64.8635 63.6894 66.4452 63.0076C68.0269 62.3252 69.398 61.382 70.5585 60.1779C71.7195 58.9733 72.612 57.5585 73.2358 55.9338C73.8597 54.3084 74.1716 52.5525 74.1716 50.6661C74.1716 48.7796 73.8597 47.024 73.2358 45.3992C72.612 43.7739 71.7195 42.3591 70.5585 41.155C69.398 39.9504 68.0269 39.0143 66.4452 38.3469C64.8635 37.6794 63.1294 37.3457 61.2429 37.3457C59.357 37.3457 57.6232 37.6794 56.0415 38.3469C54.4598 39.0143 53.0958 39.9504 51.9497 41.155C50.8036 42.3591 49.9111 43.7739 49.2724 45.3992C48.6342 47.024 48.3151 48.7796 48.3151 50.6661C48.3151 52.5525 48.6342 54.3084 49.2724 55.9338C49.9111 57.5585 50.8036 58.9733 51.9497 60.1779C53.0958 61.382 54.4598 62.3252 56.0415 63.0076C57.6232 63.6894 59.357 64.0303 61.2429 64.0303ZM84.6196 77.8725C83.9808 77.8725 83.4511 77.6547 83.0304 77.2191C82.6097 76.784 82.3993 76.2474 82.3993 75.6092C82.3993 75.2316 82.4863 74.8688 82.6602 74.521C84.1403 71.4448 85.2793 68.3253 86.077 65.1624C86.8754 61.999 87.2745 58.8791 87.2745 55.8029C87.2745 49.5633 85.751 43.3529 82.7041 37.1718C82.5296 36.8814 82.4281 36.504 82.3993 36.0397C82.3993 35.4015 82.6097 34.8574 83.0304 34.4075C83.4511 33.9575 83.9808 33.7326 84.6196 33.7326C85.5769 33.7326 86.2733 34.2405 86.7089 35.2563C88.363 38.6229 89.596 42.0185 90.4081 45.4431C91.2208 48.8671 91.6271 52.3057 91.6271 55.759C91.6271 59.2123 91.2136 62.6512 90.3866 66.0758C89.5596 69.5004 88.3337 72.9393 86.7089 76.3926C86.4478 76.9441 86.1502 77.3287 85.8162 77.5462C85.4827 77.7637 85.0839 77.8725 84.6196 77.8725Z" fill="white"/>
<path fill-rule="evenodd" clip-rule="evenodd" d="M6.77539 24.2026H100.828V87.1583H6.77539V24.2026Z" stroke="white" stroke-width="1.25526" stroke-miterlimit="10" stroke-linejoin="round"/>
</g>
</g>
<defs>
<clipPath id="clip0_246_9920">
<rect width="106" height="106" fill="white"/>
</clipPath>
</defs>
</svg>
